PathFileType	4	(X/Y/Z)	output.trc
DataRate	CameraRate	NumFrames	NumMarkers	Units	OrigDataRate	OrigDataStartFrame	OrigNumFrames
100	100	13	23	m	100	2320	6185
Frame#	Time	C7			T8			EL			EM			US			RS			AA			Fore_Clus_1			Fore_Clus_2			Fore_Clus_3			Fore_Clus_4			Hum_Clus_1			Hum_Clus_2			Hum_Clus_3			Hum_Clus_4			Thor_Clus_1			Thor_Clus_2			Thor_Clus_3			Thor_Clus_4			IJ			PX			GH			Thor_Clus_5		
		X1	Y1	Z1	X2	Y2	Z2	X3	Y3	Z3	X4	Y4	Z4	X5	Y5	Z5	X6	Y6	Z6	X7	Y7	Z7	X8	Y8	Z8	X9	Y9	Z9	X10	Y10	Z10	X11	Y11	Z11	X12	Y12	Z12	X13	Y13	Z13	X14	Y14	Z14	X15	Y15	Z15	X16	Y16	Z16	X17	Y17	Z17	X18	Y18	Z18	X19	Y19	Z19	X20	Y20	Z20	X21	Y21	Z21	X22	Y22	Z22	X23	Y23	Z23
2319	23.190000	-0.076491	1.469567	-0.108478	-0.096711	1.234132	-0.134867	-0.189941	1.078625	0.152586	-0.148178	1.063148	0.104762	-0.059940	1.061026	0.362658	-0.087134	1.104254	0.380551	-0.197935	1.378864	0.055311	-0.110726	1.032836	0.311632	-0.088344	1.038540	0.361351	-0.111391	1.057683	0.364800	-0.143220	1.063603	0.321696	-0.198880	1.184228	0.155288	-0.230685	1.173982	0.105252	-0.245030	1.233996	0.089183	-0.208925	1.253852	0.131300	0.064796	1.377206	0.005347	0.036301	1.329805	0.068932	0.029854	1.374483	0.032808	0.086756	1.333817	0.028829	-0.000628	1.384161	-0.023855	0.042051	1.174929	0.031234	-0.166447	1.356951	0.022008	0.026464	1.349003	0.058211
2320	23.200000	-0.076552	1.469490	-0.108530	-0.096765	1.234041	-0.134804	-0.189864	1.078720	0.152763	-0.148147	1.063191	0.104915	-0.060063	1.061452	0.362937	-0.087275	1.104738	0.380663	-0.197937	1.378854	0.055340	-0.110721	1.033176	0.311920	-0.088580	1.039103	0.361759	-0.111479	1.058227	0.365066	-0.143324	1.063980	0.321820	-0.198790	1.184353	0.155364	-0.230609	1.174022	0.105328	-0.244971	1.234019	0.089210	-0.208874	1.253942	0.131306	0.064770	1.377171	0.005276	0.036304	1.329808	0.068916	0.029862	1.374491	0.032775	0.086740	1.333823	0.028791	-0.000655	1.384128	-0.023892	0.042054	1.174924	0.031280	-0.166447	1.356917	0.021897	0.026454	1.349011	0.058185
2321	23.210000	-0.076595	1.469428	-0.108582	-0.096804	1.233967	-0.134755	-0.189744	1.078804	0.152904	-0.148070	1.063235	0.105033	-0.060155	1.061954	0.363158	-0.087339	1.105344	0.380671	-0.197934	1.378853	0.055357	-0.110515	1.033662	0.312037	-0.088558	1.039611	0.361956	-0.111678	1.058682	0.365225	-0.143371	1.064478	0.322015	-0.198717	1.184435	0.155435	-0.230534	1.174049	0.105406	-0.244915	1.234015	0.089234	-0.208817	1.253989	0.131299	0.064790	1.377209	0.005256	0.036296	1.329838	0.068878	0.029860	1.374503	0.032733	0.086744	1.333830	0.028767	-0.000673	1.384104	-0.023928	0.042060	1.174924	0.031318	-0.166449	1.356891	0.021784	0.026457	1.349052	0.058184
2322	23.220000	-0.076628	1.469378	-0.108631	-0.096831	1.233908	-0.134716	-0.189584	1.078881	0.153017	-0.147946	1.063285	0.105123	-0.060212	1.062530	0.363314	-0.087322	1.106067	0.380576	-0.197926	1.378856	0.055366	-0.110348	1.034101	0.312332	-0.088411	1.040225	0.362062	-0.111744	1.059223	0.365427	-0.143394	1.064895	0.322166	-0.198583	1.184537	0.155475	-0.230418	1.174079	0.105461	-0.244832	1.234014	0.089240	-0.208734	1.254060	0.131284	0.064760	1.377185	0.005176	0.036296	1.329861	0.068860	0.029862	1.374536	0.032686	0.086748	1.333848	0.028742	-0.000683	1.384088	-0.023964	0.042073	1.174930	0.031346	-0.166458	1.356874	0.021666	0.026445	1.349061	0.058132
2323	23.230000	-0.076641	1.469344	-0.108684	-0.096838	1.233865	-0.134699	-0.189388	1.078953	0.153107	-0.147779	1.063340	0.105193	-0.060232	1.063168	0.363421	-0.087233	1.106879	0.380410	-0.197915	1.378864	0.055355	-0.110144	1.034684	0.312470	-0.088260	1.040837	0.362195	-0.111705	1.059753	0.365630	-0.143363	1.065248	0.322280	-0.198448	1.184604	0.155533	-0.230307	1.174081	0.105515	-0.244751	1.233997	0.089256	-0.208655	1.254116	0.131283	0.064790	1.377240	0.005161	0.036301	1.329891	0.068827	0.029862	1.374548	0.032653	0.086750	1.333861	0.028712	-0.000682	1.384081	-0.024003	0.042090	1.174941	0.031362	-0.166470	1.356864	0.021546	0.026451	1.349091	0.058082
2324	23.240000	-0.076641	1.469320	-0.108740	-0.096829	1.233833	-0.134698	-0.189158	1.079024	0.153181	-0.147571	1.063404	0.105251	-0.060213	1.063858	0.363480	-0.087081	1.107759	0.380187	-0.197899	1.378872	0.055329	-0.109963	1.035323	0.312694	-0.088098	1.041484	0.362311	-0.111751	1.060312	0.365781	-0.143304	1.065634	0.322377	-0.198279	1.184690	0.155578	-0.230164	1.174087	0.105571	-0.244648	1.233992	0.089253	-0.208553	1.254167	0.131265	0.064773	1.377238	0.005094	0.036312	1.329914	0.068783	0.029870	1.374552	0.032616	0.086762	1.333876	0.028676	-0.000672	1.384080	-0.024044	0.042113	1.174955	0.031367	-0.166486	1.356861	0.021420	0.026450	1.349107	0.058048
2325	23.250000	-0.076627	1.469304	-0.108800	-0.096803	1.233812	-0.134715	-0.188901	1.079096	0.153244	-0.147327	1.063475	0.105303	-0.060155	1.064585	0.363503	-0.086882	1.108675	0.379938	-0.197879	1.378881	0.055286	-0.109912	1.035717	0.312865	-0.088033	1.042043	0.362442	-0.111645	1.060865	0.365982	-0.143261	1.066059	0.322515	-0.198108	1.184757	0.155624	-0.230020	1.174086	0.105626	-0.244556	1.233978	0.089271	-0.208425	1.254201	0.131239	0.064771	1.377239	0.005026	0.036317	1.329929	0.068748	0.029875	1.374569	0.032571	0.086782	1.333888	0.028644	-0.000653	1.384084	-0.024088	0.042143	1.174971	0.031361	-0.166506	1.356863	0.021290	0.026460	1.349120	0.058018
2326	23.260000	-0.076596	1.469297	-0.108867	-0.096758	1.233800	-0.134751	-0.188621	1.079170	0.153303	-0.147054	1.063554	0.105354	-0.060061	1.065333	0.363510	-0.086661	1.109589	0.379700	-0.197856	1.378890	0.055222	-0.109921	1.036051	0.313064	-0.087946	1.042712	0.362666	-0.111368	1.061485	0.366267	-0.143194	1.066503	0.322604	-0.197901	1.184836	0.155642	-0.229860	1.174087	0.105658	-0.244446	1.233974	0.089276	-0.208304	1.254259	0.131204	0.064825	1.377275	0.005012	0.036349	1.329945	0.068699	0.029911	1.374602	0.032505	0.086802	1.333909	0.028606	-0.000624	1.384092	-0.024138	0.042178	1.174989	0.031343	-0.166526	1.356870	0.021157	0.026491	1.349135	0.057961
2327	23.270000	-0.076557	1.469292	-0.108938	-0.096702	1.233791	-0.134798	-0.188322	1.079247	0.153359	-0.146755	1.063640	0.105407	-0.059936	1.066089	0.363506	-0.086442	1.110477	0.379488	-0.197829	1.378896	0.055148	-0.109962	1.036375	0.313274	-0.087958	1.043210	0.362825	-0.111428	1.062014	0.366340	-0.143042	1.066870	0.322831	-0.197708	1.184887	0.155682	-0.229673	1.174050	0.105667	-0.244336	1.233944	0.089294	-0.208177	1.254286	0.131190	0.064853	1.377283	0.004947	0.036394	1.329963	0.068641	0.029925	1.374583	0.032481	0.086846	1.333916	0.028548	-0.000589	1.384101	-0.024192	0.042221	1.175007	0.031317	-0.166546	1.356880	0.021020	0.026525	1.349168	0.057915
2328	23.280000	-0.076504	1.469289	-0.109017	-0.096631	1.233785	-0.134859	-0.188011	1.079324	0.153414	-0.146438	1.063730	0.105463	-0.059788	1.066833	0.363516	-0.086255	1.111300	0.379345	-0.197797	1.378901	0.055058	-0.110273	1.036576	0.313770	-0.088062	1.043681	0.363122	-0.111326	1.062586	0.366428	-0.142923	1.067329	0.322778	-0.197494	1.184951	0.155687	-0.229474	1.174043	0.105692	-0.244214	1.233937	0.089302	-0.208043	1.254321	0.131170	0.064890	1.377303	0.004924	0.036452	1.329957	0.068612	0.029957	1.374608	0.032414	0.086879	1.333938	0.028520	-0.000544	1.384111	-0.024251	0.042269	1.175024	0.031283	-0.166561	1.356892	0.020885	0.026554	1.349164	0.057856
2329	23.290000	-0.076446	1.469286	-0.109100	-0.096552	1.233778	-0.134926	-0.187692	1.079401	0.153466	-0.146109	1.063822	0.105518	-0.059630	1.067552	0.363546	-0.086125	1.112036	0.379280	-0.197759	1.378902	0.054962	-0.110018	1.036973	0.313830	-0.088240	1.044172	0.363471	-0.111150	1.063148	0.366556	-0.142818	1.067818	0.322667	-0.197278	1.185001	0.155695	-0.229296	1.174041	0.105697	-0.244065	1.233917	0.089300	-0.207914	1.254340	0.131143	0.064919	1.377318	0.004850	0.036541	1.329951	0.068612	0.029997	1.374609	0.032364	0.086935	1.333950	0.028428	-0.000494	1.384120	-0.024314	0.042324	1.175040	0.031244	-0.166568	1.356906	0.020753	0.026600	1.349178	0.057798
2330	23.300000	-0.076383	1.469280	-0.109186	-0.096468	1.233768	-0.134995	-0.187371	1.079474	0.153511	-0.145776	1.063911	0.105570	-0.059475	1.068234	0.363609	-0.086075	1.112668	0.379304	-0.197716	1.378902	0.054865	-0.109723	1.037450	0.313986	-0.087968	1.044769	0.363471	-0.110922	1.063701	0.366667	-0.142667	1.068230	0.322724	-0.197065	1.185044	0.155680	-0.229109	1.174043	0.105693	-0.243889	1.233910	0.089297	-0.207745	1.254358	0.131088	0.064973	1.377316	0.004794	0.036596	1.329960	0.068542	0.030064	1.374613	0.032304	0.086998	1.333958	0.028379	-0.000439	1.384126	-0.024381	0.042386	1.175055	0.031202	-0.166564	1.356921	0.020627	0.026653	1.349181	0.057745
2331	23.310000	-0.076312	1.469272	-0.109275	-0.096379	1.233757	-0.135066	-0.187054	1.079538	0.153544	-0.145444	1.063993	0.105609	-0.059338	1.068864	0.363714	-0.086120	1.113183	0.379426	-0.197665	1.378901	0.054765	-0.109438	1.038035	0.313903	-0.087828	1.045316	0.363595	-0.110894	1.064226	0.366674	-0.142533	1.068647	0.322725	-0.196856	1.185065	0.155648	-0.228919	1.174030	0.105689	-0.243719	1.233886	0.089291	-0.207583	1.254373	0.131044	0.065018	1.377302	0.004712	0.036664	1.329975	0.068488	0.030113	1.374586	0.032224	0.087063	1.333968	0.028325	-0.000376	1.384131	-0.024451	0.042453	1.175067	0.031158	-0.166544	1.356937	0.020514	0.026694	1.349190	0.057692
